# xmcd CD database file
# Copyright (C) 1995-1998 Ti Kan
#
# Track frame offsets:
#	150
#	22862
#	41351
#	61251
#	84450
#	108505
#	126977
#	144704
#	165426
#	188128
#	204995
#	223830
#	239754
#	263034
#	278598
#	293880
#	312432
#
# Disc length: 4412 seconds
#
# Revision: 1
# Processed by: cddbd v1.4PL0 Copyright (c) Steve Scherf et al.
# Submitted via: CDex 1.30Release
#
DISCID=f8113a11
DTITLE=Lightnin' Hopkins - Bluesville Disk 1
DYEAR=1900
DGENRE=Blues
TTITLE0=Rocky Mountain
TTITLE1=Got to Move your Baby
TTITLE2=So Sorry to leave you
TTITLE3=Take a Trip with me
TTITLE4=Last Night Blues
TTITLE5=Hard to Love a Woman
TTITLE6=Conversation Blues
TTITLE7=Automobile Blues
TTITLE8=You Better Watch Yourself
TTITLE9=Mean Old Frisco
TTITLE10=Shinin' Moon
TTITLE11=Come Back Baby
TTITLE12=Thinkin' 'Bout an old Friend
TTITLE13=The Walkin' Blues
TTITLE14=Back to New Orleans
TTITLE15=Katie Mae
TTITLE16=Down there Baby
EXTD=ID3G:   0
EXTT0=
EXTT1=
EXTT2=
EXTT3=
EXTT4=
EXTT5=
EXTT6=
EXTT7=
EXTT8=
EXTT9=
EXTT10=
EXTT11=
EXTT12=
EXTT13=
EXTT14=
EXTT15=
EXTT16=
PLAYORDER=
